<svg width="316.47998046875px" height="139.17001953124998px" xmlns="http://www.w3.org/2000/svg" viewBox="91.760009765625 5.414990234375011 316.47998046875 139.17001953124998" style="background: rgba(0, 0, 0, 0);" preserveAspectRatio="xMidYMid"><defs><filter id="editing-hole" x="-100%" y="-100%" width="300%" height="300%"><feFlood flood-color="#000000" result="black"></feFlood><feMorphology operator="dilate" radius="2" in="SourceGraphic" result="erode"></feMorphology><feGaussianBlur in="erode" stdDeviation="4" result="blur"></feGaussianBlur><feOffset in="blur" dx="2" dy="2" result="offset"></feOffset><feComposite operator="atop" in="offset" in2="black" result="merge"></feComposite><feComposite operator="in" in="merge" in2="SourceGraphic" result="inner-shadow"></feComposite></filter></defs><g filter="url(#editing-hole)"><g transform="translate(140.94499850273132, 100.79500007629395)"><path d="M1.28 0L1.28-10.50L4.48-10.50L4.48-39.30L1.28-39.30L1.28-49.79L30.66-49.79L30.66-49.79Q38.91-49.79 43.26-46.40L43.26-46.40L43.26-46.40Q47.62-43.01 47.62-35.39L47.62-35.39L47.62-35.39Q47.62-31.10 45.89-27.97L45.89-27.97L45.89-27.97Q44.16-24.83 40.96-23.62L40.96-23.62L41.02-22.98L41.02-22.98Q47.17-22.02 47.17-15.42L47.17-15.42L47.17-10.50L50.18-10.50L50.18 0L29.89 0L29.89-15.04L29.89-15.04Q29.89-17.54 29.15-18.82L29.15-18.82L29.15-18.82Q28.42-20.10 26.85-20.54L26.85-20.54L26.85-20.54Q25.28-20.99 22.40-20.99L22.40-20.99L22.40-10.50L26.62-10.50L26.62 0L1.28 0ZM22.40-28.80L25.86-28.80L25.86-28.80Q27.71-28.80 28.64-29.79L28.64-29.79L28.64-29.79Q29.57-30.78 29.57-32.90L29.57-32.90L29.57-35.20L29.57-35.20Q29.57-37.31 28.64-38.30L28.64-38.30L28.64-38.30Q27.71-39.30 25.86-39.30L25.86-39.30L22.40-39.30L22.40-28.80ZM89.34-39.30L89.34-49.79L110.34-49.79L110.34-39.30L107.14-39.30L107.14 0L89.15 0L70.40-28.86L70.40-10.50L73.47-10.50L73.47 0L52.48 0L52.48-10.50L55.68-10.50L55.68-39.30L52.48-39.30L52.48-49.79L75.58-49.79L92.42-24.13L92.42-39.30L89.34-39.30ZM137.60 0.90L137.60 0.90Q125.50 0.90 118.94-5.25L118.94-5.25L118.94-5.25Q112.38-11.39 112.38-24.90L112.38-24.90L112.38-24.90Q112.38-50.69 137.47-50.69L137.47-50.69L137.47-50.69Q143.55-50.69 148.77-49.22L148.77-49.22L148.77-49.22Q153.98-47.74 156.54-45.95L156.54-45.95L156.54-29.95L141.18-29.95L141.18-34.56L141.18-34.56Q141.18-36.99 140.10-38.14L140.10-38.14L140.10-38.14Q139.01-39.30 136.83-39.30L136.83-39.30L136.83-39.30Q134.66-39.30 133.57-38.14L133.57-38.14L133.57-38.14Q132.48-36.99 132.48-34.56L132.48-34.56L132.48-15.23L132.48-15.23Q132.48-12.80 133.57-11.65L133.57-11.65L133.57-11.65Q134.66-10.50 136.83-10.50L136.83-10.50L136.83-10.50Q139.01-10.50 140.10-11.65L140.10-11.65L140.10-11.65Q141.18-12.80 141.18-15.23L141.18-15.23L141.18-20.42L156.54-20.42L156.54-3.84L156.54-3.84Q153.92-2.05 148.77-0.58L148.77-0.58L148.77-0.58Q143.62 0.90 137.60 0.90L137.60 0.90ZM195.84-39.30L195.84-49.79L216.83-49.79L216.83-39.30L213.63-39.30L213.63 0L195.65 0L176.90-28.86L176.90-10.50L179.97-10.50L179.97 0L158.98 0L158.98-10.50L162.18-10.50L162.18-39.30L158.98-39.30L158.98-49.79L182.08-49.79L198.91-24.13L198.91-39.30L195.84-39.30Z" fill="#0e2a47"></path></g></g><style>text {
  font-size: 64px;
  font-family: Arial Black;
  dominant-baseline: central;
  text-anchor: middle;
}</style></svg>